<?xml version="1.0" encoding="UTF-8" standalone="no"?>
<!-- Created with Inkscape (http://www.inkscape.org/) -->

<svg
   xmlns:dc="http://purl.org/dc/elements/1.1/"
   xmlns:cc="http://creativecommons.org/ns#"
   xmlns:rdf="http://www.w3.org/1999/02/22-rdf-syntax-ns#"
   xmlns:svg="http://www.w3.org/2000/svg"
   xmlns="http://www.w3.org/2000/svg"
   xmlns:sodipodi="http://sodipodi.sourceforge.net/DTD/sodipodi-0.dtd"
   xmlns:inkscape="http://www.inkscape.org/namespaces/inkscape"
   width="744.09448819"
   height="1052.3622047"
   id="svg2"
   version="1.1"
   inkscape:version="0.48.5 r10040"
   enable-background="new"
   sodipodi:docname="New document 1">
  <defs
     id="defs4">
    <filter
       inkscape:collect="always"
       id="filter3188">
      <feBlend
         inkscape:collect="always"
         mode="lighten"
         in2="BackgroundImage"
         id="feBlend3190" />
    </filter>
  </defs>
  <sodipodi:namedview
     id="base"
     pagecolor="#ffffff"
     bordercolor="#666666"
     borderopacity="1.0"
     inkscape:pageopacity="0.0"
     inkscape:pageshadow="2"
     inkscape:zoom="0.7"
     inkscape:cx="45.038595"
     inkscape:cy="822.20588"
     inkscape:document-units="px"
     inkscape:current-layer="layer1"
     showgrid="false"
     inkscape:window-width="1920"
     inkscape:window-height="1027"
     inkscape:window-x="-8"
     inkscape:window-y="-8"
     inkscape:window-maximized="1" />
  <metadata
     id="metadata7">
    <rdf:RDF>
      <cc:Work
         rdf:about="">
        <dc:format>image/svg+xml</dc:format>
        <dc:type
           rdf:resource="http://purl.org/dc/dcmitype/StillImage" />
        <dc:title></dc:title>
      </cc:Work>
    </rdf:RDF>
  </metadata>
  <g
     inkscape:label="Layer 1"
     inkscape:groupmode="layer"
     id="layer1">
    <g
       id="g4058">
      <g
         id="g4054">
        <path
           style="fill:#063b7b;fill-opacity:1;stroke:none"
           d="m 19.66071,132.35268 0,68.0625 c 0,11.08 8.92,20 20,20 l 272.125,0 c 11.08,0 20,-8.92 20,-20 l 0,-68.0625 -133.21875,0 0,7.15625 c 0,2.37429 -1.90696,4.28125 -4.28125,4.28125 l -37.125,0 c -2.37429,0 -4.28125,-1.90696 -4.28125,-4.28125 l 0,-7.15625 -133.21875,0 z"
           id="rect3083"
           inkscape:connector-curvature="0" />
        <path
           style="fill:#aed9e1;fill-opacity:1;stroke:none"
           d="m 140.72321,22.616072 c -20.18143,0 -36.4375,16.224817 -36.4375,36.406247 0,0.19837 -0.003,0.39616 0,0.59375 l -64.625,0 c -11.08,0 -20,8.92 -20,20 l 0,43.000001 133.21875,0 0,-7.15625 c 0,-2.37429 1.90696,-4.28125 4.28125,-4.28125 l 37.125,0 c 2.37429,0 4.28125,1.90696 4.28125,4.28125 l 0,7.15625 133.21875,0 0,-43.000001 c 0,-11.08 -8.92,-20 -20,-20 l -64.625,0 c 0.003,-0.19753 0,-0.39545 0,-0.59375 0,-20.18143 -16.25607,-36.406247 -36.4375,-36.406247 l -70,0 z m 2.84375,18.562497 64.28125,0 c 6.64373,0 12.10919,8.04348 12.8125,18.4375 l -89.875,0 c 0.69965,-10.39402 6.13752,-18.4375 12.78125,-18.4375 z"
           id="rect3083-7"
           inkscape:connector-curvature="0" />
      </g>
      <flowRoot
         transform="translate(-25.357845,1.4400867)"
         style="font-size:20px;font-style:normal;font-variant:normal;font-weight:normal;font-stretch:normal;text-align:center;line-height:125%;letter-spacing:0px;word-spacing:0px;text-anchor:middle;fill:#aed9e1;fill-opacity:1;stroke:none;font-family:georgia;-inkscape-font-specification:georgia"
         id="flowRoot4036"
         xml:space="preserve"><flowRegion
           id="flowRegion4038"><rect
             style="fill:#aed9e1;fill-opacity:1"
             y="155.21933"
             x="42.857143"
             height="58.571426"
             width="315.71426"
             id="rect4040" /></flowRegion><flowPara
           style="font-size:36px;fill:#aed9e1;fill-opacity:1;font-family:Comic Sans MS;-inkscape-font-specification:Comic Sans MS"
           id="flowPara4042">LHCb Starterkit</flowPara></flowRoot>    </g>
  </g>
</svg>
